<svg width="746" height="152" viewBox="0 0 746 152" fill="none" xmlns="http://www.w3.org/2000/svg">
<path d="M25.4299 21.8953L29.782 22.9943C28.8434 26.5449 27.222 29.2501 24.8326 31.11C22.4432 32.9698 19.5418 33.8998 16.1284 33.8998C12.5443 33.8998 9.64294 33.2235 7.42422 31.7863C5.20551 30.3491 3.49881 28.2357 2.30412 25.5305C1.10942 22.8252 0.597412 19.8664 0.597412 16.7385C0.597412 13.3569 1.28009 10.3981 2.56012 7.86194C3.84015 5.32579 5.71752 3.3814 8.19224 2.11333C10.5816 0.760714 13.3124 0.168945 16.2137 0.168945C19.5418 0.168945 22.2725 1.01433 24.5766 2.7051C26.7953 4.39586 28.4167 6.6784 29.27 9.72178L25.0033 10.7362C24.2352 8.36917 23.1259 6.59386 21.6752 5.5794C20.2245 4.4804 18.4325 3.97317 16.2137 3.97317C13.6537 3.97317 11.5203 4.56494 9.89894 5.74848C8.02157 6.84748 6.82688 8.45371 6.1442 10.4826C5.46152 12.5115 5.12018 14.625 5.12018 16.7385C5.12018 19.5282 5.54685 21.9798 6.31487 24.0088C7.16822 26.1222 8.36291 27.6439 10.1549 28.6584C11.8617 29.6728 13.739 30.1801 15.7871 30.1801C18.2618 30.1801 20.3098 29.5038 22.0165 28.0666C23.6379 26.714 24.8326 24.6851 25.4299 21.8953Z" fill="#181818"/>
<path d="M33.1101 21.5572C33.1101 17.1612 34.3048 13.9487 36.7795 11.8353C38.8276 10.06 41.3023 9.2146 44.289 9.2146C47.5318 9.2146 50.2625 10.3136 52.3105 12.4271C54.3586 14.5405 55.4679 17.4994 55.4679 21.3036C55.4679 24.347 55.0413 26.714 54.1026 28.4894C53.1639 30.2647 51.7985 31.6173 50.0918 32.5472C48.2998 33.4771 46.4224 33.9843 44.289 33.9843C40.9609 33.9843 38.2302 32.8853 36.1822 30.7719C34.1341 28.5739 33.1101 25.5305 33.1101 21.5572ZM37.2915 21.5572C37.2915 24.6006 37.9742 26.8831 39.2542 28.4048C40.6196 29.9265 42.241 30.6873 44.289 30.6873C46.3371 30.6873 47.9584 29.9265 49.3238 28.4048C50.6892 26.8831 51.2865 24.6006 51.2865 21.4727C51.2865 18.5138 50.6038 16.3158 49.2385 14.7941C47.8731 13.2724 46.2517 12.5116 44.2037 12.5116C42.1556 12.5116 40.5343 13.2724 39.1689 14.7941C37.9742 16.2313 37.2915 18.5138 37.2915 21.5572Z" fill="#181818"/>
<path d="M61.2706 33.3925V12.8497H57.6865V9.72178H61.2706V7.18563C61.2706 5.5794 61.4413 4.39586 61.6973 3.63502C62.124 2.62056 62.8066 1.77517 63.7453 1.09887C64.7693 0.42256 66.1347 0.168945 67.8414 0.168945C68.9508 0.168945 70.2308 0.338022 71.5962 0.591637L70.9988 4.05771C70.1455 3.88863 69.3775 3.8041 68.6094 3.8041C67.4147 3.8041 66.4761 4.05771 65.964 4.56494C65.452 5.07217 65.196 6.08663 65.196 7.52378V9.72178H69.8895V12.8497H65.196V33.3925H61.2706Z" fill="#181818"/>
<path d="M73.1323 5.32576V0.676147H77.1431V5.32576H73.1323ZM73.1323 33.3925V9.72175H77.1431V33.3925H73.1323Z" fill="#181818"/>
<path d="M83.2871 33.3926V9.72183H86.9565V13.1034C88.7486 10.4827 91.2233 9.2146 94.5514 9.2146C96.0021 9.2146 97.2821 9.46822 98.5621 9.97545C99.7568 10.4827 100.695 11.159 101.293 12.0044C101.89 12.8498 102.317 13.8642 102.573 14.9632C102.744 15.7241 102.829 16.9921 102.829 18.852V33.3926H98.8181V19.0211C98.8181 17.4148 98.6474 16.1467 98.3061 15.3859C97.9648 14.5405 97.4527 13.9488 96.5994 13.4415C95.8314 12.9343 94.8927 12.6807 93.7833 12.6807C92.0766 12.6807 90.5406 13.1879 89.3459 14.2869C88.0659 15.3859 87.4685 17.4148 87.4685 20.4582V33.3926H83.2871Z" fill="#181818"/>
<path d="M124.504 30.4337C122.968 31.7018 121.517 32.5472 120.152 33.139C118.786 33.6462 117.25 33.8998 115.714 33.8998C113.069 33.8998 111.106 33.2235 109.656 31.9554C108.205 30.6873 107.522 29.0811 107.522 27.0522C107.522 25.8687 107.778 24.8542 108.29 23.8397C108.802 22.9098 109.485 22.149 110.424 21.5572C111.277 20.9654 112.216 20.5427 113.325 20.2046C114.093 20.0355 115.288 19.7819 116.909 19.6128C120.152 19.1901 122.627 18.7674 124.163 18.2602C124.163 17.753 124.163 17.3303 124.163 17.2457C124.163 15.6395 123.821 14.456 123.053 13.7797C122.029 12.8497 120.493 12.4271 118.445 12.4271C116.568 12.4271 115.117 12.7652 114.264 13.4415C113.325 14.1178 112.642 15.3014 112.216 16.9921L108.29 16.4849C108.632 14.7941 109.229 13.4415 110.082 12.4271C110.936 11.4126 112.13 10.5672 113.666 10.06C115.202 9.46821 116.994 9.2146 119.128 9.2146C121.176 9.2146 122.797 9.46821 124.077 9.89091C125.357 10.3981 126.296 10.9899 126.893 11.6662C127.491 12.4271 127.917 13.2724 128.173 14.3714C128.344 15.0477 128.344 16.3158 128.344 18.0911V23.417C128.344 27.1367 128.429 29.5038 128.6 30.5183C128.771 31.5327 129.112 32.4627 129.624 33.3926H125.357C124.931 32.5472 124.675 31.6173 124.504 30.4337ZM124.163 21.4727C122.712 22.0644 120.493 22.5717 117.506 22.9944C115.8 23.248 114.69 23.5016 114.008 23.7552C113.325 24.0934 112.813 24.516 112.386 25.0233C112.045 25.615 111.789 26.2068 111.789 26.9677C111.789 28.0667 112.216 28.912 112.984 29.6729C113.837 30.3492 115.032 30.7719 116.568 30.7719C118.104 30.7719 119.554 30.4337 120.749 29.7574C121.944 29.0811 122.883 28.1512 123.395 26.9677C123.821 26.0377 124.077 24.6851 124.077 22.9944V21.4727H124.163Z" fill="#181818"/>
<path d="M134.573 33.3926V9.72183H138.243V13.1034C140.035 10.4827 142.51 9.2146 145.838 9.2146C147.288 9.2146 148.568 9.46822 149.849 9.97545C151.043 10.4827 151.982 11.159 152.579 12.0044C153.177 12.8498 153.603 13.8642 153.859 14.9632C154.03 15.7241 154.115 16.9921 154.115 18.852V33.3926H150.104V19.0211C150.104 17.4148 149.934 16.1467 149.592 15.3859C149.251 14.5405 148.739 13.9488 147.886 13.4415C147.118 12.9343 146.179 12.6807 145.07 12.6807C143.363 12.6807 141.827 13.1879 140.632 14.2869C139.352 15.3859 138.755 17.4148 138.755 20.4582V33.3926H134.573Z" fill="#181818"/>
<path d="M169.049 29.7572L169.646 33.3079C168.537 33.5615 167.513 33.646 166.574 33.646C165.123 33.646 163.929 33.3924 163.161 32.9697C162.393 32.547 161.795 31.8707 161.454 31.1944C161.113 30.4336 160.942 28.8273 160.942 26.4602V12.8496H157.955V9.72165H160.942V3.80396L164.953 1.43689V9.72165H169.049V12.8496H164.953V26.7139C164.953 27.8974 165.038 28.5737 165.209 28.9119C165.379 29.25 165.55 29.5036 165.891 29.6727C166.233 29.8418 166.66 29.9263 167.257 29.9263C167.684 29.9263 168.281 29.9263 169.049 29.7572ZM163.331 40.1555V36.0131H167.513V40.1555C167.513 41.1699 167.257 42.1844 166.66 43.1143C166.148 44.0442 165.294 44.7205 164.099 45.2278L163.075 43.7061C164.526 43.1143 165.294 41.9308 165.379 40.1555H163.331Z" fill="#181818"/>
<path d="M188.591 30.4337C187.055 31.7018 185.604 32.5472 184.239 33.139C182.873 33.6462 181.337 33.8998 179.801 33.8998C177.156 33.8998 175.193 33.2235 173.743 31.9554C172.292 30.6873 171.609 29.0811 171.609 27.0522C171.609 25.8687 171.865 24.8542 172.377 23.8397C172.889 22.9098 173.572 22.149 174.511 21.5572C175.364 20.9654 176.303 20.5427 177.412 20.2046C178.18 20.0355 179.375 19.7819 180.996 19.6128C184.239 19.1901 186.713 18.7674 188.249 18.2602C188.249 17.753 188.249 17.3303 188.249 17.2457C188.249 15.6395 187.908 14.456 187.14 13.7797C186.116 12.8497 184.58 12.4271 182.532 12.4271C180.655 12.4271 179.204 12.7652 178.351 13.4415C177.412 14.1178 176.729 15.3014 176.303 16.9921L172.377 16.4849C172.718 14.7941 173.316 13.4415 174.169 12.4271C175.023 11.4126 176.217 10.5672 177.753 10.06C179.289 9.46821 181.081 9.2146 183.215 9.2146C185.263 9.2146 186.884 9.46821 188.164 9.89091C189.444 10.3981 190.383 10.9899 190.98 11.6662C191.578 12.4271 192.004 13.2724 192.26 14.3714C192.431 15.0477 192.431 16.3158 192.431 18.0911V23.417C192.431 27.1367 192.516 29.5038 192.687 30.5183C192.858 31.5327 193.199 32.4627 193.711 33.3926H189.444C189.017 32.5472 188.761 31.6173 188.591 30.4337ZM188.249 21.4727C186.799 22.0644 184.58 22.5717 181.593 22.9944C179.887 23.248 178.777 23.5016 178.095 23.7552C177.412 24.0934 176.9 24.516 176.473 25.0233C176.132 25.615 175.876 26.2068 175.876 26.9677C175.876 28.0667 176.303 28.912 177.071 29.6729C177.924 30.3492 179.119 30.7719 180.655 30.7719C182.191 30.7719 183.641 30.4337 184.836 29.7574C186.031 29.0811 186.969 28.1512 187.481 26.9677C187.908 26.0377 188.164 24.6851 188.164 22.9944V21.4727H188.249Z" fill="#181818"/>
<path d="M207.45 29.7572L208.047 33.3079C206.938 33.5615 205.914 33.646 204.975 33.646C203.524 33.646 202.33 33.3924 201.562 32.9697C200.794 32.547 200.196 31.8707 199.855 31.1944C199.514 30.4336 199.343 28.8273 199.343 26.4602V12.8496H196.356V9.72165H199.343V3.80396L203.354 1.43689V9.72165H207.45V12.8496H203.354V26.7139C203.354 27.8974 203.439 28.5737 203.61 28.9119C203.78 29.25 203.951 29.5036 204.292 29.6727C204.634 29.8418 205.06 29.9263 205.658 29.9263C206.17 29.9263 206.767 29.9263 207.45 29.7572Z" fill="#181818"/>
<path d="M239.707 33.3925V30.4337C238.17 32.8007 235.952 33.9843 233.05 33.9843C231.173 33.9843 229.381 33.477 227.76 32.4626C226.138 31.4481 224.944 30.011 224.005 28.0666C223.152 26.2067 222.725 24.0933 222.725 21.6417C222.725 19.2746 223.152 17.1611 223.92 15.2167C224.688 13.2724 225.882 11.8352 227.504 10.8208C229.125 9.80629 230.832 9.29906 232.794 9.29906C234.245 9.29906 235.525 9.63722 236.634 10.229C237.744 10.8208 238.683 11.5816 239.365 12.5961V0.676147H243.376V33.3925H239.707ZM226.906 21.5571C226.906 24.6005 227.589 26.883 228.869 28.3202C230.149 29.8419 231.685 30.6027 233.477 30.6027C235.269 30.6027 236.72 29.9264 238 28.4893C239.28 27.0521 239.877 24.8541 239.877 21.8953C239.877 18.6828 239.28 16.3157 238 14.7941C236.72 13.2724 235.184 12.5115 233.306 12.5115C231.514 12.5115 229.978 13.2724 228.784 14.7095C227.504 16.1467 226.906 18.4292 226.906 21.5571Z" fill="#181818"/>
<path d="M266.246 25.7841L270.427 26.2914C269.744 28.743 268.55 30.6028 266.758 31.9554C264.966 33.308 262.662 33.9843 259.931 33.9843C256.432 33.9843 253.701 32.8853 251.653 30.7719C249.605 28.6584 248.581 25.615 248.581 21.8108C248.581 17.8375 249.605 14.7096 251.653 12.5116C253.701 10.3136 256.432 9.2146 259.675 9.2146C262.832 9.2146 265.478 10.3136 267.526 12.4271C269.574 14.5405 270.598 17.5839 270.598 21.5572C270.598 21.8108 270.598 22.149 270.598 22.6562H252.763C252.933 25.2769 253.616 27.2213 254.981 28.6584C256.347 30.011 257.968 30.7719 260.016 30.7719C261.467 30.7719 262.747 30.3492 263.856 29.5883C264.795 28.6584 265.648 27.4749 266.246 25.7841ZM252.933 19.2747H266.246C266.075 17.2457 265.563 15.8086 264.71 14.7941C263.43 13.2724 261.723 12.5116 259.675 12.5116C257.797 12.5116 256.261 13.1034 254.981 14.3714C253.787 15.555 253.104 17.2457 252.933 19.2747Z" fill="#181818"/>
<path d="M312.327 21.8953L316.679 22.9943C315.74 26.5449 314.119 29.2501 311.729 31.11C309.34 32.9698 306.439 33.8998 303.025 33.8998C299.441 33.8998 296.54 33.2235 294.321 31.7863C292.102 30.3491 290.396 28.2357 289.201 25.5305C288.006 22.8252 287.494 19.8664 287.494 16.7385C287.494 13.3569 288.177 10.3981 289.457 7.86194C290.737 5.32579 292.614 3.3814 295.089 2.11333C297.478 0.760714 300.209 0.168945 303.11 0.168945C306.439 0.168945 309.169 1.01433 311.473 2.7051C313.692 4.39586 315.313 6.6784 316.167 9.72178L311.9 10.7362C311.132 8.36917 310.023 6.59386 308.572 5.5794C307.121 4.4804 305.329 3.97317 303.11 3.97317C300.55 3.97317 298.417 4.56494 296.796 5.74848C295.089 6.93202 293.894 8.53825 293.212 10.5672C292.529 12.5961 292.188 14.7095 292.188 16.823C292.188 19.6128 292.614 22.0644 293.382 24.0933C294.236 26.2068 295.43 27.7285 297.222 28.7429C298.929 29.7574 300.806 30.2646 302.854 30.2646C305.329 30.2646 307.377 29.5883 309.084 28.1511C310.62 26.714 311.729 24.6851 312.327 21.8953Z" fill="#181818"/>
<path d="M320.092 21.5572C320.092 17.1612 321.287 13.9487 323.762 11.8353C325.81 10.06 328.284 9.2146 331.271 9.2146C334.514 9.2146 337.245 10.3136 339.293 12.4271C341.341 14.5405 342.45 17.4994 342.45 21.3036C342.45 24.347 342.023 26.714 341.085 28.4894C340.146 30.2647 338.781 31.6173 337.074 32.5472C335.282 33.4771 333.405 33.9843 331.271 33.9843C327.943 33.9843 325.212 32.8853 323.164 30.7719C321.116 28.5739 320.092 25.5305 320.092 21.5572ZM324.274 21.5572C324.274 24.6006 324.956 26.8831 326.236 28.4048C327.602 29.9265 329.223 30.6873 331.271 30.6873C333.319 30.6873 334.941 29.9265 336.306 28.4048C337.671 26.8831 338.269 24.6006 338.269 21.4727C338.269 18.5138 337.586 16.3158 336.221 14.7941C334.855 13.2724 333.234 12.5116 331.186 12.5116C329.138 12.5116 327.516 13.2724 326.151 14.7941C324.871 16.2313 324.274 18.5138 324.274 21.5572Z" fill="#181818"/>
<path d="M347.144 33.3926V9.72183H350.813V13.2724C351.752 11.5817 352.605 10.4827 353.373 9.97545C354.141 9.46822 354.994 9.2146 355.933 9.2146C357.298 9.2146 358.664 9.63729 360.114 10.4827L358.749 14.2024C357.725 13.6106 356.786 13.357 355.762 13.357C354.909 13.357 354.056 13.6106 353.373 14.1178C352.69 14.6251 352.178 15.3859 351.837 16.3158C351.41 17.753 351.154 19.2747 351.154 20.9654V33.3926H347.144Z" fill="#181818"/>
<path d="M362.589 42.4381V9.72177H366.259V12.7652C367.112 11.5816 368.136 10.6517 369.245 10.0599C370.355 9.46816 371.635 9.13 373.256 9.13C375.304 9.13 377.096 9.63724 378.632 10.6517C380.168 11.6662 381.363 13.1878 382.131 15.0477C382.899 16.9075 383.326 19.021 383.326 21.3035C383.326 23.7551 382.899 25.8686 382.045 27.813C381.192 29.7574 379.912 31.2791 378.205 32.2935C376.499 33.308 374.792 33.8152 372.915 33.8152C371.549 33.8152 370.355 33.5616 369.245 32.9698C368.136 32.3781 367.283 31.7018 366.6 30.8564V42.3536H362.589V42.4381ZM366.259 21.6417C366.259 24.6851 366.856 26.9676 368.136 28.4048C369.416 29.8419 370.867 30.6028 372.659 30.6028C374.451 30.6028 375.987 29.8419 377.267 28.3202C378.547 26.7985 379.229 24.516 379.229 21.3035C379.229 18.2602 378.632 16.0622 377.352 14.5405C376.072 13.0188 374.621 12.2579 372.829 12.2579C371.123 12.2579 369.587 13.0188 368.221 14.625C366.856 16.3158 366.259 18.5983 366.259 21.6417Z" fill="#181818"/>
<path d="M403.806 33.3925V29.9264C401.928 32.6316 399.454 33.8997 396.211 33.8997C394.76 33.8997 393.48 33.6461 392.286 33.1389C391.091 32.6316 390.152 31.9553 389.555 31.11C388.957 30.2646 388.531 29.3346 388.275 28.1511C388.104 27.3903 388.019 26.1222 388.019 24.4314V9.72175H392.03V22.8252C392.03 24.9387 392.115 26.2913 392.286 27.0521C392.542 28.0666 393.054 28.912 393.907 29.5037C394.76 30.0955 395.784 30.4336 396.979 30.4336C398.174 30.4336 399.368 30.0955 400.392 29.5037C401.416 28.912 402.184 28.0666 402.696 26.9676C403.123 25.8686 403.379 24.3469 403.379 22.318V9.63721H407.39V33.308H403.806V33.3925Z" fill="#181818"/>
<path d="M413.705 33.3925V0.676147H417.716V33.3925H413.705Z" fill="#181818"/>
<path d="M17.7497 80.565L21.9311 81.0722C21.2485 83.5238 20.0538 85.3837 18.2617 86.7363C16.4697 88.0889 14.1656 88.7652 11.4349 88.7652C7.93617 88.7652 5.20545 87.6662 3.1574 85.5527C1.02402 83.3547 0 80.3959 0 76.5071C0 72.5338 1.02402 69.4059 3.07207 67.2079C5.12011 65.0099 7.85084 63.9109 11.0936 63.9109C14.251 63.9109 16.8964 65.0099 18.9444 67.1234C20.9925 69.2368 22.0165 72.2802 22.0165 76.2535C22.0165 76.5071 22.0165 76.8453 22.0165 77.3525H4.18142C4.35209 79.9732 5.03477 81.9176 6.40014 83.3547C7.7655 84.7074 9.38687 85.4682 11.4349 85.4682C12.8856 85.4682 14.1656 85.0455 15.275 84.2847C16.299 83.4393 17.1524 82.2558 17.7497 80.565ZM4.43743 74.0555H17.7497C17.579 72.0266 17.067 70.5894 16.2137 69.575C14.9337 68.0533 13.227 67.2924 11.1789 67.2924C9.30153 67.2924 7.7655 67.8842 6.48547 69.1523C5.29078 70.3358 4.6081 72.0266 4.43743 74.0555Z" fill="#181818"/>
<path d="M42.6676 88.1734V84.7073C40.7902 87.4125 38.3155 88.6806 35.0728 88.6806C33.6221 88.6806 32.3421 88.427 31.1474 87.9198C29.9527 87.4125 29.014 86.7362 28.4166 85.8908C27.8193 85.0455 27.3926 84.1155 27.1366 82.932C26.9659 82.1711 26.8806 80.9031 26.8806 79.2123V64.5026H30.8914V77.6061C30.8914 79.7195 30.9767 81.0722 31.1474 81.833C31.4034 82.8475 31.9154 83.6928 32.7687 84.2846C33.6221 84.8764 34.6461 85.2145 35.8408 85.2145C37.0355 85.2145 38.2302 84.8764 39.2542 84.2846C40.2782 83.6928 41.0463 82.8475 41.4729 81.7485C41.8996 80.6495 42.1556 79.1278 42.1556 77.0988V64.4181H46.1664V88.0888H42.6676V88.1734Z" fill="#181818"/>
<path d="M52.5664 88.1735V64.5027H56.2358V68.0533C57.1745 66.3626 58.0279 65.2636 58.7959 64.7563C59.5639 64.2491 60.4173 63.9955 61.3559 63.9955C62.7213 63.9955 64.0867 64.4182 65.5374 65.2636L64.172 68.9833C63.148 68.3915 62.2093 68.1379 61.1853 68.1379C60.3319 68.1379 59.4786 68.3915 58.7959 68.8987C58.1132 69.4059 57.6012 70.1668 57.2598 71.0967C56.8332 72.5339 56.5772 74.0556 56.5772 75.7463V88.1735H52.5664Z" fill="#181818"/>
<path d="M66.4761 76.3381C66.4761 71.9421 67.6708 68.7296 70.1455 66.6162C72.1935 64.8409 74.6683 63.9955 77.655 63.9955C80.8977 63.9955 83.6284 65.0945 85.6765 67.2079C87.7245 69.3214 88.8339 72.2803 88.8339 76.0845C88.8339 79.1279 88.4072 81.4949 87.4685 83.2702C86.5298 85.0456 85.1645 86.3982 83.4578 87.3281C81.6657 88.258 79.7884 88.7652 77.655 88.7652C74.3269 88.7652 71.5962 87.6662 69.5481 85.5528C67.5001 83.3548 66.4761 80.3114 66.4761 76.3381ZM70.6575 76.3381C70.6575 79.3815 71.3402 81.664 72.6202 83.1857C73.9856 84.7074 75.6069 85.4682 77.655 85.4682C79.703 85.4682 81.3244 84.7074 82.6898 83.1857C84.0551 81.664 84.6525 79.3815 84.6525 76.2536C84.6525 73.2947 83.9698 71.0967 82.6044 69.575C81.2391 68.0533 79.6177 67.2925 77.5696 67.2925C75.5216 67.2925 73.9002 68.0533 72.5349 69.575C71.2548 71.0122 70.6575 73.2947 70.6575 76.3381Z" fill="#181818"/>
<path d="M93.6125 97.219V64.5027H97.282V67.546C98.1353 66.3625 99.1593 65.4326 100.269 64.8408C101.378 64.249 102.658 63.9109 104.279 63.9109C106.327 63.9109 108.12 64.4181 109.656 65.4326C111.192 66.447 112.386 67.9687 113.154 69.8286C113.922 71.6884 114.349 73.8019 114.349 76.0844C114.349 78.536 113.922 80.6495 113.069 82.5939C112.216 84.5383 110.936 86.06 109.229 87.0744C107.522 88.0889 105.815 88.5961 103.938 88.5961C102.573 88.5961 101.378 88.3425 100.269 87.7507C99.1593 87.159 98.306 86.4827 97.6233 85.6373V97.219H93.6125ZM97.282 76.4226C97.282 79.466 97.8793 81.7485 99.1593 83.1857C100.439 84.6228 101.89 85.3837 103.682 85.3837C105.474 85.3837 107.01 84.6228 108.29 83.1011C109.57 81.5794 110.253 79.2969 110.253 76.0844C110.253 73.041 109.656 70.843 108.376 69.3214C107.096 67.7997 105.645 67.0388 103.853 67.0388C102.146 67.0388 100.61 67.7997 99.2447 69.4059C97.9646 71.0967 97.282 73.3792 97.282 76.4226Z" fill="#181818"/>
<path d="M135.597 80.565L139.779 81.0723C139.096 83.5239 137.902 85.3837 136.109 86.7363C134.317 88.0889 132.013 88.7652 129.283 88.7652C125.784 88.7652 123.053 87.6662 121.005 85.5528C118.957 83.4393 117.933 80.3959 117.933 76.5917C117.933 72.6184 118.957 69.4905 121.005 67.2925C123.053 65.0945 125.784 63.9955 129.027 63.9955C132.184 63.9955 134.829 65.0945 136.878 67.2079C138.926 69.3214 139.95 72.3648 139.95 76.3381C139.95 76.5917 139.95 76.9299 139.95 77.4371H122.029C122.2 80.0578 122.883 82.0022 124.248 83.4393C125.613 84.7919 127.235 85.5528 129.283 85.5528C130.733 85.5528 132.013 85.1301 133.123 84.3693C134.147 83.4393 135 82.2558 135.597 80.565ZM122.285 74.0556H135.597C135.427 72.0266 134.915 70.5895 134.061 69.575C132.781 68.0533 131.075 67.2925 129.027 67.2925C127.149 67.2925 125.613 67.8843 124.333 69.1523C123.139 70.3359 122.456 72.0266 122.285 74.0556Z" fill="#181818"/>
<path d="M160.43 85.2146C158.894 86.4827 157.443 87.3281 156.078 87.9199C154.713 88.4271 153.177 88.6807 151.641 88.6807C148.995 88.6807 147.033 88.0044 145.582 86.7363C144.131 85.4682 143.448 83.862 143.448 81.8331C143.448 80.6496 143.704 79.6351 144.216 78.6206C144.729 77.6907 145.411 76.9299 146.35 76.3381C147.203 75.7463 148.142 75.3236 149.251 74.9855C150.019 74.8164 151.214 74.5628 152.835 74.3937C156.078 73.971 158.553 73.5483 160.089 73.0411C160.089 72.5339 160.089 72.1112 160.089 72.0266C160.089 70.4204 159.747 69.2369 158.979 68.5606C157.955 67.6306 156.419 67.2079 154.371 67.2079C152.494 67.2079 151.043 67.5461 150.19 68.2224C149.251 68.8987 148.569 70.0823 148.142 71.773L144.216 71.2658C144.558 69.575 145.155 68.2224 146.009 67.2079C146.862 66.1935 148.057 65.3481 149.593 64.8409C151.129 64.2491 152.921 63.9955 155.054 63.9955C157.102 63.9955 158.723 64.2491 160.003 64.6718C161.284 65.179 162.222 65.7708 162.82 66.4471C163.417 67.2079 163.844 68.0533 164.1 69.1523C164.27 69.8286 164.27 71.0967 164.27 72.872V78.1979C164.27 81.9176 164.356 84.2847 164.526 85.2992C164.697 86.3136 165.038 87.2436 165.55 88.1735H161.284C160.857 87.3281 160.601 86.3982 160.43 85.2146ZM160.089 76.2536C158.638 76.8453 156.419 77.3526 153.433 77.7752C151.726 78.0289 150.617 78.2825 149.934 78.5361C149.251 78.8742 148.739 79.2969 148.313 79.8042C147.971 80.3959 147.715 80.9877 147.715 81.7486C147.715 82.8476 148.142 83.6929 148.91 84.4538C149.763 85.1301 150.958 85.5528 152.494 85.5528C154.03 85.5528 155.481 85.2146 156.675 84.5383C157.87 83.862 158.809 82.9321 159.321 81.7486C159.747 80.8186 160.003 79.466 160.003 77.7752V76.2536H160.089Z" fill="#181818"/>
<path d="M170.5 88.1735V64.5027H174.169V67.8843C175.961 65.2636 178.436 63.9955 181.764 63.9955C183.215 63.9955 184.495 64.2491 185.775 64.7563C186.969 65.2636 187.908 65.9399 188.505 66.7853C189.103 67.6306 189.529 68.6451 189.785 69.7441C189.956 70.5049 190.041 71.773 190.041 73.6329V88.1735H186.031V73.8019C186.031 72.1957 185.86 70.9276 185.519 70.1668C185.177 69.3214 184.665 68.7296 183.812 68.2224C183.044 67.7152 182.105 67.4616 180.996 67.4616C179.289 67.4616 177.753 67.9688 176.559 69.0678C175.279 70.1668 174.681 72.1957 174.681 75.2391V88.1735H170.5V88.1735Z" fill="#181818"/>
<path d="M224.432 88.1733V85.2144C222.896 87.5815 220.677 88.765 217.775 88.765C215.898 88.765 214.106 88.2578 212.485 87.2433C210.863 86.2289 209.669 84.7917 208.73 82.8473C207.877 80.9875 207.45 78.874 207.45 76.4224C207.45 74.0554 207.877 71.9419 208.645 69.9975C209.413 68.0531 210.607 66.616 212.229 65.6015C213.85 64.5871 215.557 64.0798 217.519 64.0798C218.97 64.0798 220.25 64.418 221.36 65.0097C222.469 65.6015 223.408 66.3624 224.09 67.3768V55.4569H228.101V88.1733H224.432ZM211.631 76.3379C211.631 79.3813 212.314 81.6638 213.594 83.101C214.874 84.6226 216.41 85.3835 218.202 85.3835C219.994 85.3835 221.445 84.7072 222.725 83.27C224.005 81.8329 224.602 79.6349 224.602 76.676C224.602 73.4636 224.005 71.0965 222.725 69.5748C221.445 68.0531 219.909 67.2923 218.032 67.2923C216.239 67.2923 214.703 68.0531 213.509 69.4903C212.229 70.9274 211.631 73.21 211.631 76.3379Z" fill="#181818"/>
<path d="M250.885 80.565L255.067 81.0723C254.384 83.5239 253.189 85.3837 251.397 86.7363C249.605 88.0889 247.301 88.7652 244.571 88.7652C241.072 88.7652 238.341 87.6662 236.293 85.5528C234.245 83.4393 233.221 80.3959 233.221 76.5917C233.221 72.6184 234.245 69.4905 236.293 67.2925C238.341 65.0945 241.072 63.9955 244.315 63.9955C247.472 63.9955 250.117 65.0945 252.165 67.2079C254.213 69.3214 255.237 72.3648 255.237 76.3381C255.237 76.5917 255.237 76.9299 255.237 77.4371H237.402C237.573 80.0578 238.256 82.0022 239.621 83.4393C240.986 84.7919 242.608 85.5528 244.656 85.5528C246.107 85.5528 247.387 85.1301 248.496 84.3693C249.435 83.4393 250.288 82.2558 250.885 80.565ZM237.573 74.0556H250.885C250.715 72.0266 250.203 70.5895 249.349 69.575C248.069 68.0533 246.363 67.2925 244.315 67.2925C242.437 67.2925 240.901 67.8843 239.621 69.1523C238.426 70.3359 237.744 72.0266 237.573 74.0556Z" fill="#181818"/>
<path d="M271.366 81.0722L275.376 80.4804C275.632 82.0866 276.23 83.2702 277.254 84.1156C278.278 84.9609 279.729 85.3836 281.521 85.3836C283.398 85.3836 284.763 85.0455 285.702 84.2846C286.641 83.5238 287.067 82.6784 287.067 81.6639C287.067 80.734 286.641 80.0577 285.873 79.5505C285.275 79.2123 283.91 78.7051 281.691 78.1979C278.705 77.437 276.656 76.8453 275.547 76.2535C274.438 75.6617 273.499 74.9854 272.902 73.971C272.304 73.041 272.048 71.942 272.048 70.7585C272.048 69.744 272.304 68.7296 272.816 67.7997C273.328 66.8697 273.926 66.1934 274.779 65.6017C275.376 65.179 276.23 64.7563 277.339 64.4181C278.449 64.08 279.558 63.9109 280.838 63.9109C282.715 63.9109 284.337 64.1645 285.787 64.6717C287.238 65.179 288.262 65.9398 288.945 66.8697C289.627 67.7997 290.054 68.9832 290.31 70.5049L286.385 71.0121C286.214 69.8286 285.702 68.8141 284.849 68.1378C283.995 67.4615 282.801 67.1233 281.179 67.1233C279.302 67.1233 278.022 67.4615 277.169 68.0533C276.4 68.645 275.974 69.4059 275.974 70.1667C275.974 70.674 276.144 71.1812 276.486 71.6039C276.827 72.0266 277.339 72.3647 278.022 72.7029C278.449 72.872 279.643 73.2101 281.606 73.7173C284.507 74.4782 286.47 75.07 287.579 75.5772C288.689 76.0844 289.627 76.7607 290.225 77.6906C290.907 78.6206 291.163 79.7196 291.163 81.1567C291.163 82.5093 290.737 83.7774 289.969 84.9609C289.201 86.1445 288.006 87.0744 286.555 87.6662C285.105 88.3425 283.398 88.5961 281.521 88.5961C278.449 88.5961 276.059 87.9198 274.438 86.6517C272.816 85.4682 271.792 83.6083 271.366 81.0722Z" fill="#181818"/>
<path d="M294.492 76.3381C294.492 71.9421 295.686 68.7296 298.161 66.6162C300.209 64.8409 302.684 63.9955 305.671 63.9955C308.913 63.9955 311.644 65.0945 313.692 67.2079C315.74 69.3214 316.849 72.2803 316.849 76.0845C316.849 79.1279 316.423 81.4949 315.484 83.2702C314.545 85.0456 313.18 86.3982 311.473 87.3281C309.681 88.258 307.804 88.7652 305.671 88.7652C302.343 88.7652 299.612 87.6662 297.564 85.5528C295.516 83.3548 294.492 80.3114 294.492 76.3381ZM298.673 76.3381C298.673 79.3815 299.356 81.664 300.636 83.1857C302.001 84.7074 303.623 85.4682 305.671 85.4682C307.719 85.4682 309.34 84.7074 310.705 83.1857C312.071 81.664 312.668 79.3815 312.668 76.2536C312.668 73.2947 311.985 71.0967 310.62 69.575C309.255 68.0533 307.633 67.2925 305.585 67.2925C303.537 67.2925 301.916 68.0533 300.55 69.575C299.356 71.0122 298.673 73.2947 298.673 76.3381Z" fill="#181818"/>
<path d="M321.543 88.1733V55.4569H325.554V88.1733H321.543Z" fill="#181818"/>
<path d="M331.868 60.1065V55.4569H335.879V60.1065H331.868ZM331.868 88.1733V64.5025H335.879V88.1733H331.868Z" fill="#181818"/>
<path d="M357.64 88.1733V85.2144C356.104 87.5815 353.885 88.765 350.983 88.765C349.106 88.765 347.314 88.2578 345.693 87.2433C344.071 86.2289 342.877 84.7917 341.938 82.8473C341.085 80.9875 340.658 78.874 340.658 76.4224C340.658 74.0554 341.085 71.9419 341.853 69.9975C342.621 68.0531 343.815 66.616 345.437 65.6015C347.058 64.5871 348.765 64.0798 350.727 64.0798C352.178 64.0798 353.458 64.418 354.568 65.0097C355.677 65.6015 356.616 66.3624 357.298 67.3768V55.4569H361.309V88.1733H357.64ZM344.839 76.3379C344.839 79.3813 345.522 81.6638 346.802 83.101C348.082 84.6226 349.618 85.3835 351.41 85.3835C353.202 85.3835 354.653 84.7072 355.933 83.27C357.213 81.8329 357.81 79.6349 357.81 76.676C357.81 73.4636 357.213 71.0965 355.933 69.5748C354.653 68.0531 353.117 67.2923 351.24 67.2923C349.447 67.2923 347.911 68.0531 346.717 69.4903C345.437 70.9274 344.839 73.21 344.839 76.3379Z" fill="#181818"/>
<path d="M383.325 85.2146C381.789 86.4827 380.339 87.3281 378.973 87.9199C377.608 88.4271 376.072 88.6807 374.536 88.6807C371.891 88.6807 369.928 88.0044 368.477 86.7363C367.026 85.4682 366.344 83.862 366.344 81.8331C366.344 80.6496 366.6 79.6351 367.112 78.6206C367.624 77.6907 368.306 76.9299 369.245 76.3381C370.099 75.7463 371.037 75.3236 372.147 74.9855C372.915 74.8164 374.109 74.5628 375.731 74.3937C378.973 73.971 381.448 73.5483 382.984 73.0411C382.984 72.5339 382.984 72.1112 382.984 72.0266C382.984 70.4204 382.643 69.2369 381.875 68.5606C380.851 67.6306 379.315 67.2079 377.267 67.2079C375.389 67.2079 373.939 67.5461 373.085 68.2224C372.147 68.8987 371.464 70.0823 371.037 71.773L367.112 71.2658C367.453 69.575 368.05 68.2224 368.904 67.2079C369.757 66.1935 370.952 65.3481 372.488 64.8409C374.024 64.2491 375.816 63.9955 377.949 63.9955C379.997 63.9955 381.619 64.2491 382.899 64.6718C384.179 65.179 385.118 65.7708 385.715 66.4471C386.312 67.2079 386.739 68.0533 386.995 69.1523C387.166 69.8286 387.166 71.0967 387.166 72.872V78.1979C387.166 81.9176 387.251 84.2847 387.422 85.2992C387.592 86.3136 387.934 87.2436 388.446 88.1735H384.179C383.752 87.3281 383.496 86.3982 383.325 85.2146ZM382.984 76.2536C381.533 76.8453 379.315 77.3526 376.328 77.7752C374.621 78.0289 373.512 78.2825 372.829 78.5361C372.147 78.8742 371.635 79.2969 371.208 79.8042C370.867 80.3959 370.611 80.9877 370.611 81.7486C370.611 82.8476 371.037 83.6929 371.805 84.4538C372.659 85.1301 373.853 85.5528 375.389 85.5528C376.925 85.5528 378.376 85.2146 379.571 84.5383C380.765 83.862 381.704 82.9321 382.216 81.7486C382.643 80.8186 382.899 79.466 382.899 77.7752V76.2536H382.984Z" fill="#181818"/>
<path d="M393.31 88.1735V64.5027H396.979V68.0533C397.918 66.3626 398.771 65.2636 399.539 64.7563C400.307 64.2491 401.16 63.9955 402.099 63.9955C403.465 63.9955 404.83 64.4182 406.281 65.2636L404.915 68.9833C403.891 68.3915 402.952 68.1379 401.928 68.1379C401.075 68.1379 400.222 68.3915 399.539 68.8987C398.856 69.4059 398.344 70.1668 398.003 71.0967C397.576 72.5339 397.32 74.0556 397.32 75.7463V88.1735H393.31Z" fill="#181818"/>
<path d="M408.755 60.1065V55.4569H412.766V60.1065H408.755ZM408.755 88.1733V64.5025H412.766V88.1733H408.755Z" fill="#181818"/>
<path d="M427.785 84.5382L428.383 88.0888C427.273 88.3424 426.249 88.427 425.311 88.427C423.86 88.427 422.665 88.1733 421.897 87.7507C421.129 87.328 420.532 86.6517 420.19 85.9753C419.849 85.2145 419.678 83.6083 419.678 81.2412V67.6305H416.692V64.5026H419.678V58.6694L423.689 56.3024V64.5871H427.785V67.6305H423.689V81.4948C423.689 82.6784 423.774 83.3547 423.945 83.6928C424.116 84.031 424.287 84.2846 424.628 84.4537C424.969 84.6227 425.396 84.7073 425.993 84.7073C426.505 84.7073 427.103 84.7073 427.785 84.5382Z" fill="#181818"/>
<path d="M447.327 85.2146C445.791 86.4827 444.34 87.3281 442.975 87.9199C441.609 88.4271 440.073 88.6807 438.537 88.6807C435.892 88.6807 433.929 88.0044 432.479 86.7363C431.028 85.4682 430.345 83.862 430.345 81.8331C430.345 80.6496 430.601 79.6351 431.113 78.6206C431.625 77.6907 432.308 76.9299 433.247 76.3381C434.1 75.7463 435.039 75.3236 436.148 74.9855C436.916 74.8164 438.111 74.5628 439.732 74.3937C442.975 73.971 445.45 73.5483 446.986 73.0411C446.986 72.5339 446.986 72.1112 446.986 72.0266C446.986 70.4204 446.644 69.2369 445.876 68.5606C444.852 67.6306 443.316 67.2079 441.268 67.2079C439.391 67.2079 437.94 67.5461 437.087 68.2224C436.148 68.8987 435.551 70.0823 435.039 71.773L431.113 71.2658C431.455 69.575 432.052 68.2224 432.905 67.2079C433.759 66.1935 434.953 65.3481 436.489 64.8409C438.025 64.2491 439.817 63.9955 441.951 63.9955C443.999 63.9955 445.62 64.2491 446.9 64.6718C448.18 65.179 449.119 65.7708 449.716 66.4471C450.314 67.2079 450.74 68.0533 450.996 69.1523C451.167 69.8286 451.167 71.0967 451.167 72.872V78.1979C451.167 81.9176 451.252 84.2847 451.423 85.2992C451.594 86.3136 451.935 87.2436 452.447 88.1735H448.18C447.754 87.3281 447.498 86.3982 447.327 85.2146ZM446.986 76.2536C445.535 76.8453 443.316 77.3526 440.329 77.7752C438.623 78.0289 437.513 78.2825 436.831 78.5361C436.148 78.8742 435.636 79.2969 435.209 79.8042C434.868 80.3959 434.612 80.9877 434.612 81.7486C434.612 82.8476 435.039 83.6929 435.807 84.4538C436.66 85.1301 437.855 85.5528 439.391 85.5528C440.927 85.5528 442.377 85.2146 443.572 84.5383C444.767 83.862 445.706 82.9321 446.218 81.7486C446.644 80.8186 446.9 79.466 446.9 77.7752V76.2536H446.986Z" fill="#181818"/>
<path d="M466.271 84.5382L466.869 88.0888C465.759 88.3424 464.735 88.427 463.797 88.427C462.346 88.427 461.151 88.1733 460.383 87.7507C459.615 87.328 459.018 86.6517 458.676 85.9753C458.335 85.2145 458.164 83.6083 458.164 81.2412V67.6305H455.178V64.5026H458.164V58.6694L462.175 56.3024V64.5871H466.271V67.6305H462.175V81.4948C462.175 82.6784 462.261 83.3547 462.431 83.6928C462.602 84.031 462.773 84.2846 463.114 84.4537C463.455 84.6227 463.882 84.7073 464.479 84.7073C464.906 84.7073 465.503 84.7073 466.271 84.5382Z" fill="#181818"/>
<path d="M486.581 80.565L490.763 81.0723C490.08 83.5239 488.885 85.3837 487.093 86.7363C485.301 88.0889 482.997 88.7652 480.266 88.7652C476.768 88.7652 474.037 87.6662 471.989 85.5528C469.941 83.4393 468.917 80.3959 468.917 76.5917C468.917 72.6184 469.941 69.4905 471.989 67.2925C474.037 65.0945 476.768 63.9955 480.01 63.9955C483.168 63.9955 485.813 65.0945 487.861 67.2079C489.909 69.3214 490.933 72.3648 490.933 76.3381C490.933 76.5917 490.933 76.9299 490.933 77.4371H473.098C473.269 80.0578 473.952 82.0022 475.317 83.4393C476.682 84.7919 478.304 85.5528 480.352 85.5528C481.802 85.5528 483.082 85.1301 484.192 84.3693C485.13 83.4393 485.898 82.2558 486.581 80.565ZM473.269 74.0556H486.581C486.41 72.0266 485.898 70.5895 485.045 69.575C483.765 68.0533 482.058 67.2925 480.01 67.2925C478.133 67.2925 476.597 67.8843 475.317 69.1523C474.122 70.3359 473.354 72.0266 473.269 74.0556Z" fill="#181818"/>
<path d="M16.9817 139.995C15.4457 141.264 13.995 142.109 12.6296 142.701C11.2642 143.208 9.72821 143.462 8.19218 143.462C5.54679 143.462 3.58408 142.785 2.13338 141.517C0.682681 140.334 0 138.643 0 136.698C0 135.515 0.256005 134.5 0.768016 133.486C1.28003 132.556 1.96271 131.795 2.9014 131.203C3.75475 130.612 4.69343 130.189 5.80279 129.851C6.57081 129.682 7.7655 129.428 9.38687 129.259C12.6296 128.836 15.1043 128.414 16.6404 127.906C16.6404 127.315 16.6404 126.977 16.6404 126.892C16.6404 125.286 16.299 124.102 15.531 123.426C14.507 122.496 12.9709 122.073 10.9229 122.073C9.04553 122.073 7.59483 122.411 6.74148 123.088C5.80279 123.764 5.12011 124.948 4.69343 126.638L0.768016 126.131C1.10936 124.44 1.7067 123.088 2.56005 122.073C3.41341 121.059 4.6081 120.213 6.14413 119.706C7.68016 119.114 9.4722 118.861 11.6056 118.861C13.6536 118.861 15.275 119.114 16.555 119.537C17.835 120.044 18.7737 120.636 19.3711 121.312C19.9684 122.073 20.3951 122.919 20.6511 124.018C20.8218 124.694 20.8218 125.962 20.8218 127.737V133.063C20.8218 136.783 20.9071 139.15 21.0778 140.165C21.2485 141.179 21.5898 142.109 22.1018 143.039H17.835C17.323 142.109 17.067 141.179 16.9817 139.995ZM16.6404 131.034C15.1897 131.626 12.9709 132.133 9.98421 132.556C8.27751 132.81 7.16815 133.063 6.48547 133.317C5.80279 133.655 5.29078 134.078 4.8641 134.585C4.52276 135.177 4.26676 135.769 4.26676 136.529C4.26676 137.628 4.69343 138.474 5.46145 139.235C6.3148 139.911 7.50949 140.334 9.04553 140.334C10.5816 140.334 12.0323 139.995 13.2269 139.319C14.4216 138.643 15.3603 137.713 15.8723 136.529C16.299 135.599 16.555 134.247 16.555 132.556V131.034H16.6404Z" fill="#181818"/>
<path d="M26.8806 142.954V110.238H30.8914V142.954H26.8806V142.954Z" fill="#181818"/>
<path d="M72.1936 110.238H76.5456V129.09C76.5456 132.387 76.2043 135.008 75.4363 136.952C74.6683 138.897 73.3029 140.418 71.3402 141.686C69.3775 142.87 66.8174 143.462 63.66 143.462C60.588 143.462 58.0279 142.954 56.0652 141.855C54.1025 140.841 52.7371 139.235 51.8838 137.29C51.0304 135.261 50.6038 132.556 50.6038 129.09V110.238H54.9559V129.09C54.9559 131.964 55.2119 133.993 55.7239 135.346C56.2359 136.699 57.1746 137.713 58.4546 138.474C59.7346 139.235 61.356 139.573 63.2334 139.573C66.4761 139.573 68.6948 138.812 70.0602 137.375C71.4255 135.938 72.1082 133.148 72.1082 129.09V110.238H72.1936Z" fill="#181818"/>
<path d="M83.2871 142.954V119.283H86.9565V122.665C88.7486 120.044 91.2233 118.776 94.5514 118.776C96.0021 118.776 97.2821 119.03 98.5621 119.537C99.7568 120.044 100.695 120.721 101.293 121.566C101.89 122.411 102.317 123.426 102.573 124.525C102.744 125.286 102.829 126.554 102.829 128.414V142.954H98.8181V128.583C98.8181 126.976 98.6474 125.708 98.3061 124.948C97.9648 124.102 97.4527 123.51 96.5994 123.003C95.8314 122.496 94.8927 122.242 93.7833 122.242C92.0766 122.242 90.5406 122.75 89.3459 123.849C88.0659 124.948 87.4685 126.976 87.4685 130.02V142.954H83.2871Z" fill="#181818"/>
<path d="M108.973 114.888V110.238H112.984V114.888H108.973ZM108.973 142.954V119.284H112.984V142.954H108.973Z" fill="#181818"/>
<path d="M134.829 142.954V139.488C132.952 142.193 130.477 143.461 127.235 143.461C125.784 143.461 124.504 143.208 123.309 142.701C122.115 142.193 121.176 141.517 120.579 140.672C119.981 139.826 119.554 138.896 119.298 137.713C119.128 136.952 119.042 135.684 119.042 133.993V119.368H123.053V132.471C123.053 134.585 123.139 135.937 123.309 136.698C123.565 137.713 124.077 138.558 124.931 139.15C125.784 139.742 126.808 140.08 128.003 140.08C129.197 140.08 130.392 139.742 131.416 139.15C132.44 138.558 133.208 137.713 133.635 136.614C134.061 135.515 134.317 133.993 134.317 131.964V119.283H138.328V142.954H134.829V142.954Z" fill="#181818"/>
<path d="M144.814 142.954V119.283H148.483V122.665C150.275 120.044 152.75 118.776 156.078 118.776C157.529 118.776 158.809 119.03 160.089 119.537C161.283 120.044 162.222 120.721 162.819 121.566C163.417 122.411 163.843 123.426 164.099 124.525C164.27 125.286 164.355 126.554 164.355 128.414V142.954H160.345V128.583C160.345 126.976 160.174 125.708 159.833 124.948C159.491 124.102 158.979 123.51 158.126 123.003C157.358 122.496 156.419 122.242 155.31 122.242C153.603 122.242 152.067 122.75 150.873 123.849C149.592 124.948 148.995 126.976 148.995 130.02V142.954H144.814Z" fill="#181818"/>
<path d="M170.5 114.888V110.238H174.511V114.888H170.5ZM170.5 142.954V119.284H174.511V142.954H170.5Z" fill="#181818"/>
<path d="M180.74 114.888V110.238H184.751V114.888H180.74ZM180.74 142.954V119.284H184.751V142.954H180.74Z" fill="#181818"/>
<path d="M204.292 142.954V110.238H228.101V114.127H208.644V124.102H226.906V127.907H208.644V139.066H228.869V142.954H204.292V142.954Z" fill="#181818"/>
<path d="M250.117 142.954V139.488C248.24 142.193 245.765 143.461 242.522 143.461C241.072 143.461 239.792 143.208 238.597 142.701C237.402 142.193 236.464 141.517 235.866 140.672C235.269 139.826 234.842 138.896 234.586 137.713C234.416 136.952 234.33 135.684 234.33 133.993V119.368H238.341V132.471C238.341 134.585 238.426 135.937 238.597 136.698C238.853 137.713 239.365 138.558 240.218 139.15C241.072 139.742 242.096 140.08 243.29 140.08C244.485 140.08 245.68 139.742 246.704 139.15C247.728 138.558 248.496 137.713 248.923 136.614C249.349 135.515 249.605 133.993 249.605 131.964V119.283H253.616V142.954H250.117V142.954Z" fill="#181818"/>
<path d="M260.016 142.954V119.283H263.686V122.834C264.624 121.143 265.478 120.044 266.246 119.537C267.014 119.03 267.867 118.776 268.806 118.776C270.171 118.776 271.536 119.199 272.987 120.044L271.622 123.764C270.598 123.172 269.659 122.919 268.635 122.919C267.782 122.919 266.928 123.172 266.246 123.679C265.563 124.187 265.051 124.948 264.71 125.877C264.283 127.315 264.027 128.836 264.027 130.527V142.954H260.016V142.954Z" fill="#181818"/>
<path d="M273.926 131.119C273.926 126.723 275.12 123.51 277.595 121.397C279.643 119.622 282.118 118.776 285.105 118.776C288.347 118.776 291.078 119.875 293.126 121.989C295.174 124.102 296.284 127.061 296.284 130.865C296.284 133.909 295.857 136.276 294.918 138.051C293.98 139.826 292.614 141.179 290.907 142.109C289.115 143.039 287.238 143.546 285.105 143.546C281.777 143.546 279.046 142.447 276.998 140.334C274.95 138.136 273.926 135.092 273.926 131.119ZM278.107 131.119C278.107 134.162 278.79 136.445 280.07 137.966C281.435 139.488 283.057 140.249 285.105 140.249C287.153 140.249 288.774 139.488 290.139 137.966C291.505 136.445 292.102 134.162 292.102 131.034C292.102 128.075 291.419 125.877 290.054 124.356C288.689 122.834 287.067 122.073 285.019 122.073C282.971 122.073 281.35 122.834 279.985 124.356C278.79 125.793 278.107 128.075 278.107 131.119Z" fill="#181818"/>
<path d="M301.062 152V119.283H304.732V122.327C305.585 121.143 306.609 120.213 307.719 119.622C308.828 119.03 310.108 118.692 311.729 118.692C313.777 118.692 315.569 119.199 317.106 120.213C318.642 121.228 319.836 122.749 320.604 124.609C321.372 126.469 321.799 128.583 321.799 130.865C321.799 133.317 321.372 135.43 320.519 137.375C319.666 139.319 318.386 140.841 316.679 141.855C314.972 142.87 313.265 143.377 311.388 143.377C310.023 143.377 308.828 143.123 307.719 142.531C306.609 141.94 305.756 141.263 305.073 140.418V151.915H301.062V152ZM304.732 131.203C304.732 134.247 305.329 136.529 306.609 137.966C307.889 139.404 309.34 140.164 311.132 140.164C312.924 140.164 314.46 139.404 315.74 137.882C317.02 136.36 317.703 134.078 317.703 130.865C317.703 127.822 317.106 125.624 315.825 124.102C314.545 122.58 313.095 121.82 311.303 121.82C309.596 121.82 308.06 122.58 306.695 124.187C305.415 125.877 304.732 128.16 304.732 131.203Z" fill="#181818"/>
<path d="M343.047 135.346L347.229 135.853C346.546 138.305 345.351 140.164 343.559 141.517C341.767 142.87 339.463 143.546 336.733 143.546C333.234 143.546 330.503 142.447 328.455 140.334C326.407 138.22 325.383 135.177 325.383 131.372C325.383 127.399 326.407 124.271 328.455 122.073C330.503 119.875 333.234 118.776 336.477 118.776C339.634 118.776 342.279 119.875 344.327 121.989C346.376 124.102 347.4 127.146 347.4 131.119C347.4 131.372 347.4 131.711 347.4 132.218H329.564C329.735 134.839 330.418 136.783 331.783 138.22C333.149 139.573 334.77 140.334 336.818 140.334C338.269 140.334 339.549 139.911 340.658 139.15C341.597 138.22 342.45 137.037 343.047 135.346ZM329.735 128.836H343.047C342.877 126.807 342.365 125.37 341.511 124.356C340.231 122.834 338.525 122.073 336.477 122.073C334.599 122.073 333.063 122.665 331.783 123.933C330.588 125.117 329.906 126.807 329.735 128.836Z" fill="#181818"/>
<path d="M352.349 142.954V119.283H356.018V122.665C357.81 120.044 360.285 118.776 363.613 118.776C365.064 118.776 366.344 119.03 367.624 119.537C368.819 120.044 369.757 120.721 370.355 121.566C370.952 122.411 371.379 123.426 371.635 124.525C371.805 125.286 371.891 126.554 371.891 128.414V142.954H367.88V128.583C367.88 126.976 367.709 125.708 367.368 124.948C367.027 124.102 366.514 123.51 365.661 123.003C364.893 122.496 363.954 122.242 362.845 122.242C361.138 122.242 359.602 122.75 358.408 123.849C357.128 124.948 356.53 126.976 356.53 130.02V142.954H352.349Z" fill="#181818"/>
<path d="M394.334 135.346L398.515 135.853C397.833 138.305 396.638 140.164 394.846 141.517C393.054 142.87 390.75 143.546 388.019 143.546C384.52 143.546 381.79 142.447 379.741 140.334C377.693 138.22 376.669 135.177 376.669 131.372C376.669 127.399 377.693 124.271 379.741 122.073C381.79 119.875 384.52 118.776 387.763 118.776C390.92 118.776 393.566 119.875 395.614 121.989C397.662 124.102 398.686 127.146 398.686 131.119C398.686 131.372 398.686 131.711 398.686 132.218H380.851C381.022 134.839 381.704 136.783 383.07 138.22C384.435 139.573 386.056 140.334 388.104 140.334C389.555 140.334 390.835 139.911 391.944 139.15C392.883 138.22 393.651 137.037 394.334 135.346ZM381.022 128.836H394.334C394.163 126.807 393.651 125.37 392.798 124.356C391.518 122.834 389.811 122.073 387.763 122.073C385.886 122.073 384.35 122.665 383.07 123.933C381.875 125.117 381.107 126.807 381.022 128.836Z" fill="#181818"/>
<path d="M746 0H528.31V143.8H746V0Z" fill="#034EA2"/>
<path d="M637.112 15.9779L638.904 21.5574L644.792 21.4729L640.014 24.939L641.891 30.434L637.112 26.9679L632.419 30.434L634.211 24.939L629.432 21.4729L635.32 21.5574L637.112 15.9779Z" fill="#FFF200"/>
<path d="M612.962 22.4027L614.754 27.9822L620.642 27.8977L615.864 31.2792L617.656 36.8588L612.962 33.3927L608.184 36.8588L610.061 31.2792L605.282 27.8977L611.17 27.9822L612.962 22.4027Z" fill="#FFF200"/>
<path d="M595.213 39.9022L597.005 45.4818H602.893L598.114 48.8633L599.992 54.3583L595.213 50.9768L590.519 54.3583L592.311 48.8633L587.533 45.4818H593.421L595.213 39.9022Z" fill="#FFF200"/>
<path d="M588.813 63.9109L590.605 69.4904L596.408 69.4059L591.629 72.7874L593.506 78.367L588.813 74.9009L584.034 78.367L585.911 72.7874L581.133 69.4059L586.935 69.4904L588.813 63.9109Z" fill="#FFF200"/>
<path d="M595.213 87.8352L597.005 93.4147H602.893L598.114 96.7963L599.992 102.291L595.213 98.9097L590.519 102.291L592.311 96.7963L587.618 93.4147H593.421L595.213 87.8352Z" fill="#FFF200"/>
<path d="M612.962 105.419L614.754 110.999L620.642 110.914L615.864 114.296L617.656 119.875L612.962 116.409L608.184 119.875L610.061 114.296L605.282 110.914L611.17 110.999L612.962 105.419Z" fill="#FFF200"/>
<path d="M637.112 111.844L638.99 117.339H644.792L640.014 120.721L641.891 126.3L637.112 122.834L632.419 126.3L634.211 120.721L629.518 117.339H635.32L637.112 111.844Z" fill="#FFF200"/>
<path d="M661.348 105.419L663.14 110.914H669.028L664.249 114.296L666.041 119.875L661.348 116.409L656.569 119.875L658.446 114.296L653.667 110.914H659.555L661.348 105.419Z" fill="#FFF200"/>
<path d="M679.012 87.8352L680.804 93.4147H686.692L681.913 96.7963L683.791 102.291L679.012 98.9097L674.319 102.291L676.111 96.7963L671.332 93.4147H677.22L679.012 87.8352Z" fill="#FFF200"/>
<path d="M685.497 63.9109L687.289 69.4059H693.177L688.399 72.7874L690.276 78.367L685.497 74.9009L680.804 78.367L682.596 72.7874L677.817 69.4059H683.705L685.497 63.9109Z" fill="#FFF200"/>
<path d="M679.012 39.9022L680.804 45.4818H686.692L681.913 48.8633L683.791 54.3583L679.012 50.9768L674.319 54.3583L676.111 48.8633L671.332 45.4818H677.22L679.012 39.9022Z" fill="#FFF200"/>
<path d="M661.348 22.4027L663.14 27.9822L669.028 27.8977L664.249 31.2792L666.041 36.8588L661.348 33.3927L656.569 36.8588L658.446 31.2792L653.667 27.8977L659.555 27.9822L661.348 22.4027Z" fill="#FFF200"/>
</svg>
