<svg width="575" height="243" viewBox="0 0 575 243" fill="none" xmlns="http://www.w3.org/2000/svg">
<path d="M231.787 40.5355C231.787 41.0603 231.787 41.5923 231.787 42.1172C231.787 42.642 231.759 43.1456 231.709 43.6209H203.258C203.364 44.7273 203.69 45.7274 204.242 46.6211C204.793 47.5148 205.501 48.295 206.371 48.9547C207.234 49.6143 208.21 50.125 209.285 50.4938C210.36 50.8626 211.478 51.047 212.631 51.047C214.682 51.047 216.416 50.664 217.83 49.9051C219.252 49.1391 220.405 48.1532 221.296 46.9403L230.28 52.6287C228.441 55.3169 226.015 57.3809 222.987 58.8349C219.967 60.2819 216.458 61.0054 212.468 61.0054C209.526 61.0054 206.739 60.5443 204.114 59.6223C201.49 58.7002 199.191 57.3596 197.217 55.5935C195.244 53.8274 193.694 51.657 192.57 49.0752C191.438 46.4934 190.879 43.5428 190.879 40.2234C190.879 37.0103 191.431 34.1023 192.534 31.4921C193.638 28.882 195.138 26.6761 197.026 24.8533C198.915 23.0375 201.15 21.626 203.725 20.6259C206.3 19.6258 209.08 19.1223 212.079 19.1223C214.965 19.1223 217.618 19.6117 220.037 20.5834C222.457 21.5551 224.529 22.9666 226.262 24.8107C227.995 26.6548 229.346 28.8962 230.323 31.5276C231.299 34.159 231.787 37.1664 231.787 40.5355ZM219.882 35.5563C219.882 33.4994 219.238 31.7404 217.951 30.2651C216.663 28.7898 214.732 28.0521 212.157 28.0521C210.898 28.0521 209.738 28.2507 208.691 28.6479C207.644 29.0451 206.717 29.5842 205.932 30.2651C205.147 30.9531 204.51 31.7546 204.043 32.6766C203.577 33.5987 203.308 34.5633 203.258 35.5634H219.882V35.5563Z" fill="#2B2E4A"/>
<path d="M267.163 59.7357V54.6005H267.007C265.748 56.6007 263.944 58.1469 261.61 59.225C259.268 60.3032 256.793 60.8422 254.161 60.8422C251.219 60.8422 248.594 60.2606 246.281 59.1045C243.968 57.9483 242.016 56.4021 240.41 54.4799C238.804 52.5578 237.587 50.3307 236.746 47.8056C235.904 45.2806 235.486 42.642 235.486 39.9042C235.486 37.1664 235.918 34.542 236.788 32.0454C237.651 29.5416 238.889 27.3428 240.495 25.449C242.093 23.5553 244.039 22.0516 246.323 20.9451C248.608 19.8386 251.169 19.2854 254.006 19.2854C256.892 19.2854 259.339 19.8386 261.334 20.9451C263.329 22.0516 264.878 23.2645 265.982 24.5766H266.137V0H279.061V59.7357H267.163ZM266.696 39.9822C266.696 38.7197 266.47 37.4785 266.024 36.2656C265.578 35.0527 264.949 33.9746 264.135 33.0242C263.322 32.0737 262.339 31.3148 261.178 30.7332C260.025 30.1516 258.71 29.8679 257.238 29.8679C255.71 29.8679 254.373 30.1587 253.22 30.7332C252.067 31.3148 251.091 32.0666 250.306 32.9887C249.521 33.9108 248.927 34.9818 248.53 36.1876C248.134 37.4004 247.943 38.6346 247.943 39.9042C247.943 41.1738 248.141 42.4222 248.53 43.6563C248.927 44.8975 249.514 45.9898 250.306 46.9332C251.091 47.8836 252.067 48.6426 253.22 49.2242C254.373 49.8058 255.717 50.0895 257.238 50.0895C258.71 50.0895 260.025 49.7987 261.178 49.2242C262.331 48.6426 263.322 47.8836 264.135 46.9332C264.949 45.9827 265.578 44.9046 266.024 43.6918C266.47 42.486 266.696 41.2447 266.696 39.9822Z" fill="#2B2E4A"/>
<path d="M312.789 59.7357V54.2814H312.633C312.159 55.175 311.544 56.0191 310.78 56.8135C310.016 57.6008 309.125 58.2888 308.099 58.8704C307.073 59.452 305.941 59.9201 304.711 60.289C303.473 60.6578 302.178 60.8422 300.813 60.8422C298.189 60.8422 295.967 60.367 294.156 59.4166C292.346 58.4661 290.874 57.2462 289.742 55.7425C288.611 54.2388 287.797 52.5294 287.302 50.6073C286.8 48.6851 286.552 46.7204 286.552 44.7202V20.3848H299.554V41.72C299.554 42.8264 299.632 43.8833 299.787 44.8834C299.943 45.8835 300.247 46.7772 300.693 47.5715C301.138 48.3589 301.732 48.983 302.468 49.4299C303.204 49.8767 304.173 50.1037 305.383 50.1037C307.639 50.1037 309.365 49.2596 310.546 47.5715C311.728 45.8835 312.322 43.9116 312.322 41.6419V20.3848H325.246V59.7357H312.789Z" fill="#2B2E4A"/>
<path d="M360.07 33.1093C359.334 32.1588 358.337 31.3999 357.078 30.8183C355.819 30.2367 354.531 29.953 353.215 29.953C351.85 29.953 350.612 30.2296 349.509 30.7828C348.405 31.3361 347.457 32.0737 346.672 32.9958C345.887 33.9179 345.265 34.9889 344.819 36.1946C344.373 37.4075 344.147 38.6984 344.147 40.0673C344.147 41.4362 344.359 42.7271 344.776 43.94C345.194 45.1529 345.816 46.2168 346.63 47.1389C347.443 48.0609 348.412 48.7844 349.544 49.3093C350.676 49.8341 351.949 50.0966 353.364 50.0966C354.68 50.0966 355.974 49.8483 357.269 49.3447C358.556 48.8411 359.596 48.1177 360.381 47.1743L367.554 55.9411C365.927 57.5228 363.826 58.7569 361.251 59.6577C358.676 60.5514 355.946 60.9982 353.06 60.9982C349.962 60.9982 347.068 60.523 344.38 59.5797C341.692 58.6292 339.358 57.2461 337.377 55.4304C335.397 53.6146 333.833 51.4158 332.701 48.834C331.563 46.2523 330.997 43.33 330.997 40.0673C330.997 36.8543 331.563 33.9604 332.701 31.3786C333.84 28.7968 335.397 26.5981 337.377 24.7823C339.358 22.9665 341.692 21.5693 344.38 20.5975C347.068 19.6258 349.933 19.1364 352.982 19.1364C354.397 19.1364 355.804 19.2712 357.198 19.5336C358.592 19.796 359.929 20.1507 361.216 20.5975C362.503 21.0444 363.685 21.5976 364.76 22.2573C365.835 22.9169 366.769 23.6404 367.561 24.4277L360.07 33.1093Z" fill="#2B2E4A"/>
<path d="M369.69 25.7611C372.003 23.5482 374.692 21.8885 377.769 20.782C380.839 19.6755 383.979 19.1223 387.184 19.1223C390.494 19.1223 393.289 19.5336 395.573 20.3493C397.858 21.165 399.712 22.4275 401.126 24.144C402.541 25.8604 403.581 28.0167 404.239 30.6268C404.897 33.237 405.222 36.3294 405.222 39.9113V59.7428H393.402V55.5581H393.168C392.171 57.1894 390.657 58.459 388.641 59.3527C386.618 60.2464 384.425 60.6933 382.062 60.6933C380.485 60.6933 378.858 60.4805 377.174 60.062C375.491 59.6435 373.956 58.9555 372.562 58.0051C371.169 57.0547 370.03 55.7921 369.132 54.2104C368.24 52.6287 367.795 50.6853 367.795 48.366C367.795 45.5217 368.573 43.2307 370.122 41.493C371.671 39.7553 373.666 38.4076 376.113 37.4643C378.554 36.5138 381.277 35.8826 384.269 35.5705C387.262 35.2584 390.183 35.0953 393.02 35.0953V34.464C393.02 32.5135 392.334 31.0807 390.968 30.1587C389.603 29.2366 387.92 28.7756 385.925 28.7756C384.086 28.7756 382.31 29.1728 380.605 29.9601C378.9 30.7474 377.443 31.6978 376.234 32.8043L369.69 25.7611ZM393.409 42.5853H391.754C390.339 42.5853 388.903 42.6491 387.46 42.7839C386.017 42.9116 384.729 43.1669 383.597 43.5357C382.466 43.9046 381.532 44.4436 380.796 45.1529C380.061 45.8622 379.693 46.7984 379.693 47.9617C379.693 48.6993 379.862 49.3306 380.202 49.8554C380.542 50.3803 380.973 50.8059 381.504 51.118C382.027 51.4371 382.635 51.657 383.314 51.7918C384.001 51.9265 384.651 51.9904 385.288 51.9904C387.912 51.9904 389.921 51.2669 391.315 49.82C392.708 48.373 393.402 46.4083 393.402 43.9329V42.5853H393.409Z" fill="#2B2E4A"/>
<path d="M425.715 30.0239V45.0962C425.715 46.9474 426.068 48.3376 426.776 49.2596C427.483 50.1888 428.756 50.6498 430.596 50.6498C431.225 50.6498 431.897 50.6002 432.605 50.4938C433.312 50.3874 433.906 50.2314 434.38 50.0186L434.536 59.5017C433.644 59.8208 432.513 60.0975 431.147 60.3315C429.782 60.5656 428.417 60.6862 427.052 60.6862C424.427 60.6862 422.22 60.3528 420.431 59.6932C418.641 59.0335 417.212 58.0831 416.137 56.8419C415.062 55.6006 414.284 54.1182 413.81 52.4089C413.336 50.6924 413.102 48.7773 413.102 46.6637V30.0239H406.799V20.3848H413.024V10.0363H425.708V20.3848H434.925V30.0239H425.715ZM422.56 78.7019H412.635L417.912 63.2963H429.337L422.56 78.7019Z" fill="#2B2E4A"/>
<path d="M452.666 7.82336C452.666 8.82345 452.468 9.7597 452.072 10.6321C451.676 11.4974 451.152 12.2493 450.494 12.8876C449.836 13.5189 449.051 14.0225 448.132 14.3913C447.212 14.7601 446.25 14.9446 445.253 14.9446C443.152 14.9446 441.39 14.2495 439.976 12.8522C438.561 11.4549 437.846 9.78098 437.846 7.83755C437.846 6.88711 438.03 5.97923 438.398 5.1139C438.766 4.24858 439.289 3.49674 439.976 2.85839C440.662 2.22713 441.447 1.71644 442.338 1.31925C443.229 0.922049 444.206 0.72345 445.253 0.72345C446.25 0.72345 447.205 0.907863 448.132 1.27669C449.051 1.64552 449.836 2.14201 450.494 2.78037C451.152 3.41163 451.676 4.16347 452.072 5.03588C452.468 5.88702 452.666 6.82327 452.666 7.82336ZM438.794 59.7357V20.3847H451.718V59.7357H438.794Z" fill="#2B2E4A"/>
<path d="M498.525 40.5355C498.525 41.0603 498.525 41.5923 498.525 42.1172C498.525 42.642 498.497 43.1456 498.447 43.6209H469.997C470.103 44.7273 470.428 45.7274 470.98 46.6211C471.532 47.5148 472.239 48.295 473.109 48.9547C473.972 49.6143 474.948 50.125 476.024 50.4938C477.099 50.8626 478.216 51.047 479.369 51.047C481.421 51.047 483.154 50.664 484.569 49.9051C485.983 49.1391 487.144 48.1532 488.035 46.9403L497.019 52.6287C495.179 55.3169 492.746 57.3809 489.725 58.8349C486.705 60.2819 483.196 61.0054 479.207 61.0054C476.264 61.0054 473.477 60.5443 470.853 59.6223C468.228 58.7002 465.929 57.3596 463.956 55.5935C461.982 53.8274 460.433 51.657 459.308 49.0752C458.176 46.4934 457.618 43.5428 457.618 40.2234C457.618 37.0103 458.169 34.1023 459.273 31.4921C460.376 28.882 461.876 26.6761 463.765 24.8533C465.653 23.0375 467.889 21.626 470.464 20.6259C473.038 19.6258 475.826 19.1223 478.818 19.1223C481.704 19.1223 484.364 19.6117 486.776 20.5834C489.195 21.5551 491.268 22.9666 493.001 24.8107C494.734 26.6548 496.085 28.8962 497.061 31.5276C498.044 34.159 498.525 37.1664 498.525 40.5355ZM486.627 35.5563C486.627 33.4994 485.983 31.7404 484.696 30.2651C483.409 28.7898 481.477 28.0521 478.903 28.0521C477.643 28.0521 476.483 28.2507 475.436 28.6479C474.39 29.0451 473.463 29.5842 472.678 30.2651C471.892 30.9531 471.263 31.7546 470.789 32.6766C470.315 33.5987 470.053 34.5633 470.004 35.5634H486.627V35.5563Z" fill="#2B2E4A"/>
<path d="M236.512 112.145C236.512 114.882 236.088 117.521 235.253 120.046C234.411 122.578 233.187 124.798 231.589 126.72C229.983 128.642 228.031 130.182 225.718 131.345C223.404 132.501 220.78 133.083 217.837 133.083C215.418 133.083 213.133 132.593 210.983 131.621C208.825 130.65 207.149 129.316 205.939 127.635H205.784V150.942H192.86V92.6322H205.154V97.4553H205.387C206.597 95.8736 208.267 94.4905 210.389 93.306C212.518 92.1215 215.022 91.5257 217.915 91.5257C220.752 91.5257 223.327 92.079 225.64 93.1855C227.953 94.2919 229.905 95.7956 231.511 97.6894C233.11 99.5832 234.348 101.789 235.218 104.286C236.081 106.782 236.512 109.407 236.512 112.145ZM223.984 112.145C223.984 110.882 223.786 109.641 223.397 108.428C223.001 107.215 222.421 106.151 221.664 105.229C220.9 104.307 219.945 103.555 218.785 102.974C217.632 102.392 216.288 102.108 214.767 102.108C213.296 102.108 211.98 102.399 210.827 102.974C209.674 103.555 208.684 104.314 207.87 105.265C207.057 106.215 206.427 107.293 205.982 108.506C205.536 109.719 205.31 110.953 205.31 112.223C205.31 113.485 205.536 114.726 205.982 115.939C206.427 117.152 207.057 118.23 207.87 119.181C208.684 120.131 209.667 120.89 210.827 121.472C211.98 122.053 213.296 122.337 214.767 122.337C216.288 122.337 217.632 122.046 218.785 121.472C219.938 120.89 220.9 120.131 221.664 119.181C222.428 118.23 223.001 117.138 223.397 115.904C223.786 114.663 223.984 113.407 223.984 112.145Z" fill="#2B2E4A"/>
<path d="M281.19 112.776C281.19 113.301 281.19 113.833 281.19 114.358C281.19 114.882 281.162 115.386 281.112 115.861H252.662C252.768 116.968 253.093 117.968 253.645 118.861C254.197 119.755 254.904 120.535 255.774 121.195C256.637 121.855 257.613 122.365 258.688 122.734C259.764 123.103 260.881 123.287 262.034 123.287C264.086 123.287 265.819 122.904 267.234 122.145C268.655 121.379 269.808 120.394 270.7 119.181L279.683 124.869C277.844 127.557 275.418 129.621 272.39 131.075C269.37 132.522 265.861 133.246 261.872 133.246C258.929 133.246 256.142 132.785 253.518 131.863C250.893 130.941 248.594 129.6 246.621 127.834C244.647 126.068 243.098 123.897 241.973 121.316C240.841 118.734 240.282 115.783 240.282 112.464C240.282 109.251 240.834 106.343 241.938 103.732C243.041 101.122 244.541 98.9165 246.43 97.0936C248.318 95.2778 250.554 93.8664 253.128 92.8663C255.703 91.8662 258.483 91.3626 261.483 91.3626C264.369 91.3626 267.021 91.852 269.441 92.8237C271.86 93.7954 273.932 95.2069 275.666 97.0511C277.399 98.8952 278.75 101.137 279.726 103.768C280.709 106.406 281.19 109.407 281.19 112.776ZM269.292 107.797C269.292 105.74 268.648 103.981 267.361 102.505C266.074 101.03 264.142 100.292 261.567 100.292C260.308 100.292 259.148 100.491 258.101 100.888C257.054 101.285 256.128 101.825 255.343 102.505C254.557 103.193 253.921 103.995 253.454 104.917C252.987 105.839 252.718 106.804 252.669 107.804H269.292V107.797Z" fill="#2B2E4A"/>
<path d="M312.633 131.976V110.485C312.633 109.378 312.541 108.329 312.357 107.321C312.173 106.321 311.869 105.442 311.452 104.676C311.027 103.91 310.44 103.307 309.676 102.86C308.912 102.413 307.957 102.186 306.797 102.186C305.637 102.186 304.633 102.413 303.763 102.86C302.893 103.307 302.171 103.924 301.598 104.718C301.018 105.506 300.587 106.421 300.296 107.442C300.006 108.47 299.865 109.534 299.865 110.641V131.976H286.863V92.6251H299.391V98.0795H299.547C300.021 97.2355 300.636 96.4056 301.4 95.5899C302.164 94.7743 303.055 94.0792 304.081 93.4976C305.107 92.9159 306.224 92.4407 307.434 92.079C308.644 91.7102 309.931 91.5257 311.296 91.5257C313.921 91.5257 316.156 92.001 317.995 92.9443C319.834 93.8947 321.32 95.1147 322.445 96.6184C323.576 98.1221 324.39 99.8456 324.885 101.796C325.38 103.747 325.635 105.697 325.635 107.641V131.976H312.633Z" fill="#2B2E4A"/>
<path d="M347.068 102.264V117.336C347.068 119.188 347.422 120.578 348.129 121.5C348.837 122.429 350.11 122.89 351.949 122.89C352.579 122.89 353.251 122.841 353.958 122.734C354.666 122.628 355.26 122.472 355.734 122.259L355.889 131.742C354.998 132.061 353.866 132.338 352.501 132.572C351.136 132.806 349.771 132.927 348.405 132.927C345.781 132.927 343.574 132.593 341.784 131.934C339.995 131.274 338.566 130.323 337.49 129.082C336.415 127.841 335.637 126.359 335.163 124.649C334.689 122.933 334.456 121.018 334.456 118.904V102.264H328.153V92.6251H334.378V82.2767H347.068V92.6251H356.286V102.264H347.068Z" fill="#2B2E4A"/>
<path d="M385.451 103.293C384.871 103.137 384.312 103.03 383.76 102.974C383.208 102.924 382.671 102.896 382.147 102.896C380.414 102.896 378.957 103.208 377.776 103.839C376.594 104.47 375.646 105.229 374.939 106.123C374.232 107.016 373.715 107.988 373.404 109.038C373.093 110.088 372.93 111.01 372.93 111.797V131.969H360.006V92.6677H372.456V98.3561H372.612C373.609 96.3418 375.024 94.6962 376.863 93.4266C378.702 92.157 380.832 91.5186 383.244 91.5186C383.767 91.5186 384.284 91.547 384.779 91.5967C385.281 91.6463 385.684 91.7243 386.003 91.8307L385.451 103.293Z" fill="#2B2E4A"/>
<path d="M414.687 131.976V126.522H414.524C414.05 127.415 413.435 128.259 412.671 129.054C411.907 129.841 411.015 130.529 409.99 131.111C408.964 131.692 407.832 132.161 406.601 132.529C405.363 132.898 404.069 133.083 402.704 133.083C400.079 133.083 397.858 132.607 396.047 131.657C394.236 130.706 392.765 129.487 391.633 127.983C390.501 126.479 389.688 124.77 389.193 122.848C388.691 120.925 388.443 118.961 388.443 116.961V92.6251H401.445V113.96C401.445 115.067 401.522 116.124 401.678 117.124C401.834 118.124 402.138 119.018 402.583 119.812C403.029 120.599 403.623 121.223 404.359 121.67C405.095 122.117 406.064 122.344 407.273 122.344C409.53 122.344 411.249 121.5 412.437 119.812C413.619 118.124 414.213 116.152 414.213 113.882V92.6251H427.137V131.976H414.687Z" fill="#2B2E4A"/>
<path d="M473.661 102.626V117.698C473.661 119.549 474.015 120.94 474.722 121.862C475.429 122.791 476.703 123.252 478.542 123.252C479.171 123.252 479.843 123.202 480.551 123.096C481.258 122.989 481.852 122.833 482.326 122.621L482.482 132.104C481.591 132.423 480.459 132.7 479.094 132.934C477.728 133.168 476.363 133.288 474.998 133.288C472.373 133.288 470.166 132.955 468.377 132.295C466.587 131.636 465.158 130.685 464.083 129.444C463.008 128.203 462.23 126.72 461.756 125.011C461.282 123.294 461.048 121.379 461.048 119.266V102.626H454.746V92.9869H460.971V82.6313H473.661V92.9798H482.878V102.619H473.661V102.626Z" fill="#2B2E4A"/>
<path d="M528.193 112.499C528.193 115.712 527.613 118.62 526.46 121.23C525.307 123.841 523.729 126.047 521.734 127.869C519.74 129.685 517.426 131.097 514.802 132.097C512.178 133.097 509.362 133.6 506.37 133.6C503.427 133.6 500.633 133.097 497.981 132.097C495.328 131.097 493.015 129.685 491.048 127.869C489.075 126.054 487.511 123.841 486.358 121.23C485.205 118.62 484.625 115.712 484.625 112.499C484.625 109.286 485.205 106.392 486.358 103.811C487.511 101.229 489.075 99.0441 491.048 97.2497C493.022 95.4623 495.328 94.0863 497.981 93.1429C500.633 92.1925 503.427 91.7173 506.37 91.7173C509.362 91.7173 512.178 92.1925 514.802 93.1429C517.426 94.0934 519.74 95.4623 521.734 97.2497C523.729 99.0441 525.307 101.229 526.46 103.811C527.613 106.392 528.193 109.286 528.193 112.499ZM515.736 112.499C515.736 111.237 515.524 109.995 515.106 108.783C514.682 107.57 514.081 106.506 513.295 105.584C512.51 104.662 511.534 103.91 510.381 103.328C509.228 102.747 507.884 102.463 506.363 102.463C504.842 102.463 503.498 102.754 502.345 103.328C501.185 103.91 500.23 104.662 499.466 105.584C498.702 106.506 498.129 107.577 497.733 108.783C497.337 109.995 497.146 111.23 497.146 112.499C497.146 113.762 497.344 115.003 497.733 116.216C498.129 117.429 498.716 118.521 499.509 119.493C500.294 120.472 501.27 121.245 502.423 121.826C503.576 122.408 504.92 122.692 506.441 122.692C507.962 122.692 509.306 122.401 510.459 121.826C511.612 121.245 512.588 120.472 513.373 119.493C514.158 118.521 514.753 117.429 515.149 116.216C515.545 115.003 515.736 113.762 515.736 112.499Z" fill="#2B2E4A"/>
<path d="M548.049 102.626V117.698C548.049 119.549 548.403 120.94 549.11 121.862C549.817 122.791 551.091 123.252 552.93 123.252C553.559 123.252 554.231 123.202 554.939 123.096C555.646 122.989 556.24 122.833 556.714 122.621L556.87 132.104C555.979 132.423 554.847 132.7 553.482 132.934C552.116 133.168 550.751 133.288 549.386 133.288C546.761 133.288 544.554 132.955 542.765 132.295C540.975 131.636 539.546 130.685 538.471 129.444C537.396 128.203 536.618 126.72 536.144 125.011C535.67 123.294 535.436 121.379 535.436 119.266V102.626H529.134V92.9869H535.358V82.6313H548.042V92.9798H557.259V102.619H548.049V102.626ZM544.894 151.297H534.962L540.239 135.891H551.664L544.894 151.297Z" fill="#2B2E4A"/>
<path d="M575 80.4184C575 81.4185 574.802 82.3547 574.406 83.2271C574.01 84.0925 573.486 84.8443 572.828 85.4827C572.17 86.1139 571.385 86.6175 570.466 86.9863C569.546 87.3552 568.584 87.5396 567.587 87.5396C565.486 87.5396 563.724 86.8445 562.31 85.4472C560.895 84.0499 560.18 82.376 560.18 80.4326C560.18 79.4821 560.364 78.5743 560.732 77.7089C561.1 76.8436 561.623 76.0918 562.31 75.4534C562.996 74.8222 563.781 74.3115 564.672 73.9143C565.564 73.5171 566.533 73.3185 567.587 73.3185C568.584 73.3185 569.546 73.5029 570.466 73.8717C571.385 74.2405 572.17 74.737 572.828 75.3754C573.486 76.0067 574.01 76.7585 574.406 77.6309C574.802 78.4821 575 79.4183 575 80.4184ZM561.128 132.331V92.9869H574.052V132.338H561.128V132.331Z" fill="#2B2E4A"/>
<path d="M0 0V243L81.6174 121.507L163.235 243V47.2878C163.235 21.1721 142.119 0 116.074 0H0ZM12.4711 202.053V18.5619L74.105 110.315L12.4711 202.053Z" fill="#E84545"/>
<path d="M74.0979 110.315L12.4711 202.053V18.5619L74.0979 110.315Z" fill="#FFD2D2"/>
</svg>
